<svg width="158" height="29" viewBox="0 0 158 29" fill="none" xmlns="http://www.w3.org/2000/svg">
<path d="M7.124 22.2694C5.80346 22.2694 4.65667 21.9798 3.68363 21.4006C2.72218 20.8098 1.98082 20.0048 1.45955 18.9854C0.949867 17.966 0.695025 16.8308 0.695025 15.5798C0.695025 14.1897 0.996202 12.9734 1.59856 11.9309C2.20091 10.8768 3.03494 10.0659 4.10065 9.49832C5.16635 8.93071 6.38264 8.64691 7.74953 8.64691C9.3365 8.64691 10.686 9.02917 11.798 9.7937C12.9217 10.5466 13.6514 11.5892 13.9874 12.9213H12.0934C11.827 11.8556 11.3115 11.0274 10.547 10.4366C9.78247 9.84583 8.8384 9.55044 7.71478 9.55044C6.70699 9.55044 5.82662 9.79949 5.07368 10.2976C4.32074 10.7957 3.73576 11.4791 3.31874 12.3479C2.91331 13.2167 2.7106 14.2013 2.7106 15.3018C2.7106 16.3791 2.89594 17.3521 3.26662 18.2209C3.64888 19.0781 4.21069 19.7615 4.95205 20.2712C5.69341 20.7693 6.59115 21.0184 7.64527 21.0184C9.01216 21.0184 10.1126 20.5955 10.9466 19.7499C11.7807 18.9043 12.2846 17.7517 12.4583 16.2922L6.77649 16.3096L6.75912 15.4408L14.1785 15.4234V22.1304H13.275L12.6321 18.7421H12.5104C12.0818 19.831 11.4042 20.694 10.4775 21.3311C9.5508 21.9566 8.43297 22.2694 7.124 22.2694ZM22.1353 22.3041C20.7568 22.3041 19.5289 22.0203 18.4516 21.4527C17.3859 20.8736 16.5577 20.0685 15.9669 19.0375C15.3762 18.0066 15.0808 16.8192 15.0808 15.4755C15.0808 14.1318 15.3762 12.9445 15.9669 11.9135C16.5577 10.8826 17.3859 10.0833 18.4516 9.51569C19.5289 8.94809 20.7568 8.66429 22.1353 8.66429C23.5021 8.66429 24.7184 8.94809 25.7841 9.51569C26.8499 10.0833 27.6781 10.8884 28.2689 11.9309C28.8596 12.9619 29.155 14.1492 29.155 15.4929C29.155 16.8366 28.8596 18.024 28.2689 19.0549C27.6781 20.0859 26.8499 20.8851 25.7841 21.4527C24.7184 22.0203 23.5021 22.3041 22.1353 22.3041ZM17.1311 15.4929C17.1311 16.6397 17.3338 17.6649 17.7392 18.5684C18.1447 19.4603 18.7239 20.1554 19.4768 20.6535C20.2413 21.1516 21.1275 21.4006 22.1353 21.4006C23.1431 21.4006 24.0234 21.1516 24.7764 20.6535C25.5293 20.1438 26.1085 19.443 26.5139 18.551C26.9194 17.6591 27.1221 16.6339 27.1221 15.4755C27.1221 14.3287 26.9194 13.3094 26.5139 12.4174C26.1085 11.5255 25.5293 10.8304 24.7764 10.3323C24.0234 9.83425 23.1431 9.58519 22.1353 9.58519C21.1159 9.58519 20.2297 9.83425 19.4768 10.3323C18.7239 10.8304 18.1447 11.5255 17.7392 12.4174C17.3338 13.3094 17.1311 14.3345 17.1311 15.4929ZM29.8471 21.9566C30.1715 21.7597 30.38 21.5049 30.4727 21.1921C30.5653 20.8678 30.6117 20.3697 30.6117 19.6978V11.2011C30.6117 10.5061 30.5653 10.008 30.4727 9.70682C30.38 9.39406 30.1715 9.13343 29.8471 8.92492V8.87279H33.3049V8.92492C32.9921 9.13343 32.7894 9.39406 32.6967 9.70682C32.6041 10.008 32.5577 10.5061 32.5577 11.2011V21.1226H34.3474C34.9382 21.1226 35.5695 21.0589 36.2414 20.9315C36.9248 20.7925 37.7183 20.5898 38.6218 20.3233V22.0261H29.8471V21.9566ZM39.0575 21.9566C39.3819 21.7597 39.5904 21.5049 39.6831 21.1921C39.7757 20.8678 39.8221 20.3697 39.8221 19.6978V11.2011C39.8221 10.5061 39.7757 10.008 39.6831 9.70682C39.5904 9.39406 39.3819 9.13343 39.0575 8.92492V8.87279H44.0617C46.4943 8.87279 48.3824 9.42881 49.7262 10.5409C51.0699 11.6413 51.7417 13.2167 51.7417 15.267C51.7417 16.6223 51.429 17.8097 50.8034 18.829C50.1779 19.8484 49.286 20.6361 48.1276 21.1921C46.9808 21.7481 45.6313 22.0261 44.0791 22.0261H39.0575V21.9566ZM43.9575 21.1574C45.139 21.1574 46.1584 20.9257 47.0156 20.4623C47.8843 19.999 48.5504 19.3271 49.0138 18.4468C49.4771 17.5548 49.7088 16.5007 49.7088 15.2844C49.7088 13.4657 49.2165 12.0873 48.2319 11.149C47.2472 10.2107 45.8224 9.74158 43.9575 9.74158H41.7681V21.1574H43.9575Z" fill="black"/>
<path d="M98.3108 21.9566C98.6351 21.7597 98.8436 21.5049 98.9363 21.1921C99.0289 20.8678 99.0753 20.3697 99.0753 19.6978V11.2011C99.0753 10.5061 99.0289 10.008 98.9363 9.70682C98.8436 9.39406 98.6351 9.13343 98.3108 8.92492V8.87279H101.786V8.92492C101.462 9.13343 101.253 9.39406 101.16 9.70682C101.068 10.008 101.021 10.5061 101.021 11.2011V19.6978C101.021 20.3697 101.068 20.8678 101.16 21.1921C101.253 21.5049 101.462 21.7597 101.786 21.9566V22.0261H98.3108V21.9566ZM103.635 21.9566C103.924 21.7481 104.11 21.4817 104.191 21.1574C104.283 20.8214 104.33 20.306 104.33 19.6109V11.2011C104.33 10.5177 104.289 10.0196 104.208 9.70682C104.127 9.39406 103.953 9.13343 103.687 8.92492V8.87279H105.998L112.948 19.8021V11.288C112.948 10.593 112.896 10.0833 112.792 9.75895C112.687 9.42302 112.473 9.1508 112.149 8.9423V8.87279H114.772V8.9423C114.483 9.1508 114.292 9.42302 114.199 9.75895C114.118 10.0833 114.077 10.593 114.077 11.288V22.0261H112.323L105.459 11.1664V19.6109C105.459 20.306 105.505 20.8214 105.598 21.1574C105.702 21.4817 105.928 21.7481 106.276 21.9566V22.0261H103.635V21.9566ZM116.612 10.6625C116.438 10.176 116.27 9.80529 116.108 9.55044C115.946 9.2956 115.737 9.08709 115.482 8.92492V8.87279H119.062V8.92492C118.691 9.08709 118.506 9.34194 118.506 9.68945C118.506 9.87479 118.575 10.1875 118.714 10.6277L121.911 20.1843L125.161 10.6277C125.3 10.1875 125.369 9.88058 125.369 9.70682C125.369 9.35931 125.184 9.09868 124.813 8.92492V8.87279H127.454V8.92492C127.211 9.07551 127.014 9.27243 126.863 9.51569C126.713 9.75895 126.545 10.1354 126.36 10.6451L122.624 21.0879C122.508 21.4354 122.45 21.7481 122.45 22.0261H120.695L116.612 10.6625ZM128.18 21.9566C128.504 21.7597 128.713 21.5049 128.805 21.1921C128.898 20.8678 128.944 20.3697 128.944 19.6978V11.2011C128.944 10.5061 128.898 10.008 128.805 9.70682C128.713 9.39406 128.504 9.13343 128.18 8.92492V8.87279H136.676V10.4366C135.669 10.1818 134.858 10.0022 134.244 9.89796C133.63 9.78212 133.074 9.7242 132.576 9.7242H130.89V14.711H131.933C132.767 14.711 134.053 14.6473 135.79 14.5199V15.7535C134.632 15.6261 133.346 15.5624 131.933 15.5624H130.89V21.1574H132.888C133.456 21.1574 134.064 21.0936 134.713 20.9662C135.373 20.8272 136.138 20.6245 137.007 20.3581V22.0261H128.18V21.9566ZM142.911 22.3041C141.428 22.3041 140.206 21.9219 139.244 21.1574C138.283 20.3812 137.727 19.2924 137.576 17.8907H139.453C139.534 18.9796 139.876 19.8368 140.478 20.4623C141.08 21.0879 141.903 21.4064 142.945 21.418C143.791 21.418 144.451 21.2211 144.926 20.8272C145.413 20.4334 145.662 19.8716 145.673 19.1418C145.673 18.6669 145.546 18.2614 145.291 17.9255C145.036 17.5896 144.66 17.2826 144.162 17.0046C143.675 16.7266 142.945 16.3733 141.972 15.9447C141.057 15.5392 140.327 15.1686 139.783 14.8326C139.25 14.4967 138.827 14.1029 138.515 13.6511C138.213 13.1993 138.063 12.6491 138.063 12.0004C138.063 10.9463 138.457 10.1238 139.244 9.53307C140.044 8.9423 141.069 8.64691 142.32 8.64691C143.629 8.64691 144.729 8.98284 145.621 9.6547C146.513 10.3266 147.063 11.2648 147.272 12.4695H145.413C145.297 11.5776 144.961 10.871 144.405 10.3497C143.861 9.81687 143.148 9.55044 142.268 9.55044C141.468 9.55044 140.855 9.7242 140.426 10.0717C140.009 10.4192 139.8 10.9057 139.8 11.5313C139.8 11.9714 139.922 12.3479 140.165 12.6607C140.409 12.9734 140.744 13.2572 141.173 13.5121C141.613 13.7553 142.256 14.0623 143.102 14.433C144.156 14.9079 144.967 15.3134 145.534 15.6493C146.102 15.9852 146.554 16.3964 146.89 16.883C147.226 17.3579 147.394 17.9487 147.394 18.6553C147.394 19.8021 146.982 20.6998 146.16 21.3485C145.337 21.9856 144.254 22.3041 142.911 22.3041ZM147.617 8.87279H157.886V10.4714C156.717 10.1702 155.871 9.96746 155.35 9.8632C154.828 9.74737 154.336 9.68945 153.873 9.68945H153.716V19.6978C153.716 20.3697 153.763 20.8678 153.855 21.1921C153.948 21.5049 154.151 21.7597 154.463 21.9566V22.0261H151.023V21.9566C151.336 21.7597 151.539 21.4991 151.631 21.1747C151.736 20.8504 151.788 20.3581 151.788 19.6978V9.68945H151.649C151.185 9.68945 150.687 9.74737 150.154 9.8632C149.621 9.96746 148.776 10.1702 147.617 10.4714V8.87279Z" fill="black"/>
<g clip-path="url(#clip0_163_4505)">
<path d="M89.5378 25.7952C89.4336 26.18 89.1 26.4571 88.7273 26.5648C86.4123 26.5837 84.0898 26.5345 81.7788 26.5957L81.7284 26.5452L81.5898 22.8366H86.9154C87.0519 22.8366 87.3519 23.1394 87.4292 23.2631C87.8988 24.0126 88.2114 25.0155 88.6648 25.7919L88.73 25.8605C88.8545 25.7562 88.9378 25.6082 88.9157 25.4414C88.5013 24.219 87.9216 23.0566 87.4353 21.8618C87.4077 21.841 87.0634 22.1336 86.9887 22.1707C86.9409 22.1935 86.6423 22.2991 86.6127 22.2991H81.6066L81.5562 22.2487V21.7104L81.6066 21.66H86.6127C86.6389 21.66 86.8501 21.4979 86.8831 21.4596C87.0957 21.212 87.0243 20.9376 87.0324 20.6355L85.9879 9.44823C85.9643 9.29485 85.887 9.06141 85.7847 8.94571C85.7357 8.89055 85.5299 8.75533 85.4706 8.75533H81.119V8.15056H85.7054C85.8258 8.15056 86.1856 8.35641 86.2905 8.43915C86.5105 8.61271 87.6411 9.96016 87.7554 10.2003C87.8019 10.2985 87.8241 10.4264 87.8631 10.53C88.4065 15.1945 88.9594 19.8591 89.4564 24.5292C89.4988 24.9288 89.6421 25.4085 89.5378 25.7952Z" fill="black"/>
<path d="M62.437 20.7703C62.4269 21.0326 62.4175 21.2963 62.622 21.4921C62.6502 21.5189 62.8749 21.6602 62.8903 21.6602H67.8635L67.9139 21.7107V22.2489L67.8635 22.2993H62.8567C62.6865 22.2993 62.3314 22.0632 62.1888 21.9575C62.1296 21.9132 62.1451 21.8284 62.0368 21.8654L60.621 25.2048C60.5632 25.3938 60.5161 25.519 60.6277 25.7053C60.6714 25.7786 60.7649 25.8889 60.8194 25.7726L62.1397 23.1275C62.2016 23.0528 62.5076 22.8368 62.5883 22.8368H67.8803C67.8521 23.2895 67.8635 23.7457 67.848 24.1991C67.8258 24.8462 67.8211 25.5398 67.7808 26.1822C67.7754 26.2656 67.7498 26.5765 67.6906 26.5959L60.7764 26.5644C59.7164 26.2387 59.9302 25.5203 60.0136 24.6639C60.4703 19.957 61.0884 15.264 61.6063 10.5631C61.714 10.0646 62.5507 9.11947 62.924 8.7219C63.1143 8.51874 63.5031 8.15076 63.7977 8.15076H68.3504V8.75554H63.9994C63.8959 8.75554 63.6759 8.95601 63.6181 9.04682C63.5212 9.19953 63.501 9.40135 63.4788 9.57894C63.0154 13.291 62.8823 17.0549 62.437 20.7703Z" fill="black"/>
<path d="M81.0138 26.5509C80.8167 20.3451 80.6331 14.1676 80.3755 7.96646C80.3452 7.23925 80.4085 6.88406 79.9814 6.24363C79.7016 5.8252 78.6765 4.44344 78.3046 4.22414C78.1109 4.10978 77.7632 3.99945 77.5391 3.98129C75.7298 3.98129 73.8115 3.98129 71.9022 3.99205C71.506 4.05865 71.1428 4.24499 70.8691 4.5383C70.5267 4.90493 69.5918 6.09429 69.3833 6.51406C69.0389 7.20763 69.1492 8.39026 69.1217 9.17667C68.9367 14.4797 68.7242 19.7969 68.5479 25.1032C68.5204 25.9421 68.4531 26.8321 68.4457 27.6588C68.439 28.3847 68.9226 28.9195 69.6423 28.9854L79.8239 28.9874C81.332 28.8402 81.0488 27.6434 81.0138 26.5509ZM71.3036 5.67855C71.3412 5.17603 71.5638 4.74146 72.1039 4.66477L77.369 4.65535C78.5319 4.76433 78.2098 6.46159 78.2252 7.29441C78.3113 12.066 78.3981 16.8402 78.4633 21.6077C78.4714 22.2367 78.5279 22.9081 77.7914 23.1235L71.8255 23.1382C71.2665 23.034 71.0621 22.5744 71.0675 22.045C71.1139 17.2432 71.2228 12.4313 71.3063 7.63077C71.317 6.99909 71.2571 6.29677 71.3036 5.67855ZM80.1246 28.1789C80.0668 28.2024 80.0331 28.0632 80.0157 28.0201C79.5865 26.9794 79.2409 25.9037 78.7983 24.8684C78.614 24.5738 78.353 24.4413 78.0093 24.4143H71.5222C71.239 24.4447 70.9606 24.5563 70.7857 24.787L69.4559 28.1795C69.2219 28.0948 69.1075 27.7376 69.1338 27.5068L70.1964 23.9952C70.2436 23.7397 70.0418 23.5748 69.9429 23.3743C69.5441 22.563 69.7196 21.8305 69.727 20.9721C69.762 16.6929 69.7889 12.4057 69.9281 8.13463C69.9604 7.14911 69.8622 6.83562 70.5718 6.05595C70.6014 6.02298 70.6014 5.98396 70.666 5.99943L70.5671 12.6042C70.5334 14.8516 70.4823 17.1093 70.4298 19.3562C70.6626 20.8213 69.6221 23.447 71.7253 23.8102L77.8358 23.8062C79.3801 23.5163 79.109 22.2132 79.0989 21.0393C79.0606 16.8449 78.9946 12.658 78.9335 8.46763C78.9227 7.71351 78.9227 6.93989 78.9005 6.18241C78.8984 6.12321 78.881 6.07208 78.8642 6.01625C78.9281 5.97454 79.0391 6.15079 79.0801 6.20393C79.2919 6.47437 79.5691 6.87934 79.604 7.22647C79.742 8.62033 79.6438 10.2698 79.67 11.6967C79.7345 15.2378 79.8986 18.8107 79.8758 22.3485C79.8711 23.0204 79.5966 23.1927 79.3861 23.71C79.2805 23.9677 79.4137 24.2555 79.4863 24.5159C79.7688 25.5257 80.1387 26.5132 80.4065 27.5284C80.4717 27.6979 80.276 28.1169 80.1246 28.1789Z" fill="black"/>
</g>
<defs>
<clipPath id="clip0_163_4505">
<rect width="29.6016" height="24.9766" fill="white" transform="translate(59.9383 3.98129) scale(1.00119)"/>
</clipPath>
</defs>
</svg>
